<svg width="1920" height="3939" viewBox="0 0 1920 3939" fill="none" xmlns="http://www.w3.org/2000/svg">
<g clip-path="url(#clip0)">
<rect width="1920" height="3939" fill="#FFDA84"/>
<path d="M1501 255H1624V328H1501V255Z" fill="#ACA9A9"/>
<path d="M1535 223H1658V296H1535V223Z" fill="#ACA9A9"/>
<path d="M1457 299H1588V372H1457V299Z" fill="#ACA9A9"/>
<path d="M1497 328H1628V401H1497V328Z" fill="#ACA9A9"/>
<path d="M1297 1018H1564V1176H1297V1018Z" fill="#ACA9A9"/>
<path d="M1812 1410H1906V1466H1812V1410Z" fill="#ACA9A9"/>
<path d="M504 89H712V212H504V89Z" fill="#ACA9A9"/>
<path d="M1212 954H1491V1112H1212V954Z" fill="#ACA9A9"/>
<path d="M1781 1387H1880V1443H1781V1387Z" fill="#ACA9A9"/>
<path d="M437 39H655V162H437V39Z" fill="#ACA9A9"/>
<path d="M1151 876H1430V1034H1151V876Z" fill="#ACA9A9"/>
<path d="M1760 1359H1859V1415H1760V1359Z" fill="#ACA9A9"/>
<path d="M390 -22H608V101H390V-22Z" fill="#ACA9A9"/>
<path d="M1228 797H1507V954H1228V797Z" fill="#ACA9A9"/>
<path d="M1787 1331H1886V1387H1787V1331Z" fill="#ACA9A9"/>
<path d="M450 -84H668V39H450V-84Z" fill="#ACA9A9"/>
<path d="M1308 724H1587V881H1308V724Z" fill="#ACA9A9"/>
<path d="M1815 1305H1915V1361H1815V1305Z" fill="#ACA9A9"/>
<path d="M91 544H265V637H91V544Z" fill="#ACA9A9"/>
<path d="M603 1471H731V1540H603V1471Z" fill="#ACA9A9"/>
<path d="M38 705H159V798H38V705Z" fill="#ACA9A9"/>
<path d="M563 1590H653V1659H563V1590Z" fill="#ACA9A9"/>
<path d="M-14 647H107V740H-14V647Z" fill="#ACA9A9"/>
<path d="M525 1547H615V1616H525V1547Z" fill="#ACA9A9"/>
<path d="M41 596H162V689H41V596Z" fill="#ACA9A9"/>
<path d="M566 1509H655V1578H566V1509Z" fill="#ACA9A9"/>
<path d="M102 561H265V657H102V561Z" fill="white"/>
<path d="M611 1484H731V1555H611V1484Z" fill="white"/>
<path d="M143 753H243V821H143V753Z" fill="white"/>
<path d="M641 1626H715V1676H641V1626Z" fill="white"/>
<path d="M1343 742H1610V899H1343V742Z" fill="white"/>
<path d="M1828 1311H1923V1367H1828V1311Z" fill="white"/>
<path d="M1351 1033H1617V1190H1351V1033Z" fill="white"/>
<path d="M1831 1415H1926V1471H1831V1415Z" fill="white"/>
<path d="M546 100H754V223H546V100Z" fill="white"/>
<path d="M1551 232H1674V306H1551V232Z" fill="white"/>
<path d="M1555 366H1678V440H1555V366Z" fill="white"/>
<path d="M53 705H216V801H53V705Z" fill="white"/>
<path d="M575 1590H695V1661H575V1590Z" fill="white"/>
<path d="M1263 977H1529V1134H1263V977Z" fill="white"/>
<path d="M1799 1395H1894V1451H1799V1395Z" fill="white"/>
<path d="M477 57H685V179H477V57Z" fill="white"/>
<path d="M1514 342H1637V416H1514V342Z" fill="white"/>
<path d="M162 705H325V801H162V705Z" fill="white"/>
<path d="M655 1590H776V1661H655V1590Z" fill="white"/>
<path d="M1441 977H1707V1134H1441V977Z" fill="white"/>
<path d="M1863 1395H1957V1451H1863V1395Z" fill="white"/>
<path d="M616 57H824V179H616V57Z" fill="white"/>
<path d="M1596 342H1720V416H1596V342Z" fill="white"/>
<path d="M162 609H325V705H162V609Z" fill="white"/>
<path d="M655 1519H776V1590H655V1519Z" fill="white"/>
<path d="M1441 820H1707V977H1441V820Z" fill="white"/>
<path d="M1863 1339H1957V1395H1863V1339Z" fill="white"/>
<path d="M616 -66H824V57H616V-66Z" fill="white"/>
<path d="M1596 269H1720V342H1596V269Z" fill="white"/>
<path d="M53 609H216V705H53V609Z" fill="white"/>
<path d="M575 1519H695V1590H575V1519Z" fill="white"/>
<path d="M1263 820H1529V977H1263V820Z" fill="white"/>
<path d="M1799 1339H1894V1395H1799V1339Z" fill="white"/>
<path d="M477 -66H685V57H477V-66Z" fill="white"/>
<path d="M1514 269H1637V342H1514V269Z" fill="white"/>
<path d="M-1 657H162V753H-1V657Z" fill="white"/>
<path d="M535 1555H655V1626H535V1555Z" fill="white"/>
<path d="M1174 899H1441V1056H1174V899Z" fill="white"/>
<path d="M1768 1367H1863V1423H1768V1367Z" fill="white"/>
<path d="M408 -4H616V118H408V-4Z" fill="white"/>
<path d="M1473 306H1596V379H1473V306Z" fill="white"/>
<path d="M227 657H390V753H227V657Z" fill="white"/>
<path d="M703 1555H824V1626H703V1555Z" fill="white"/>
<path d="M1528 899H1794V1056H1528V899Z" fill="white"/>
<path d="M1894 1367H1988V1423H1894V1367Z" fill="white"/>
<path d="M684 -4H892V118H684V-4Z" fill="white"/>
<path d="M1637 306H1760V379H1637V306Z" fill="white"/>
<rect x="-11" y="2686.09" width="1947.23" height="230.165" fill="#5A6D24"/>
<rect x="-1.87231" y="2916.26" width="1947.23" height="1039.74" fill="#BBDC77"/>
<rect x="1095.46" y="2676.08" width="33.6791" height="10.0072" fill="#485E0C"/>
<rect x="23.6696" y="2656.07" width="29.7168" height="30.0215" fill="#5A6D24"/>
<rect x="-6.04718" y="2656.07" width="29.7168" height="30.0215" fill="#485E0C"/>
<rect x="23.6697" y="2626.05" width="29.7168" height="30.0215" fill="#485E0C"/>
<rect x="5.74799" y="2631" width="29.7168" height="30.0215" fill="#485E0C"/>
<rect x="35.3033" y="2605" width="29.7168" height="30.0215" fill="#485E0C"/>
<rect x="53.3865" y="2596.03" width="29.7168" height="30.0215" fill="#485E0C"/>
<rect x="83.1033" y="2611.04" width="29.7168" height="30.0215" fill="#485E0C"/>
<rect x="112.82" y="2605.03" width="29.7168" height="30.0215" fill="#485E0C"/>
<rect x="142.537" y="2641.06" width="29.7168" height="30.0215" fill="#485E0C"/>
<rect x="172.254" y="2626.05" width="29.7168" height="30.0215" fill="#485E0C"/>
<rect x="198.999" y="2646.06" width="29.7168" height="30.0215" fill="#485E0C"/>
<rect x="201.798" y="2620" width="29.7168" height="30.0215" fill="#485E0C"/>
<rect x="219.532" y="2601" width="29.7168" height="30.0215" fill="#485E0C"/>
<rect x="243.574" y="2590.02" width="29.7168" height="30.0215" fill="#485E0C"/>
<rect x="260.909" y="2605" width="29.7168" height="30.0215" fill="#485E0C"/>
<rect x="272.731" y="2622" width="29.7168" height="30.0215" fill="#485E0C"/>
<rect x="286.524" y="2641" width="29.7168" height="30.0215" fill="#485E0C"/>
<rect x="303.008" y="2646.06" width="29.7168" height="30.0215" fill="#485E0C"/>
<rect x="314.895" y="2656.07" width="29.7168" height="30.0215" fill="#485E0C"/>
<rect x="332.789" y="2631.05" width="29.7168" height="30.0215" fill="#485E0C"/>
<rect x="350.62" y="2611.04" width="29.7168" height="30.0215" fill="#485E0C"/>
<rect x="368.45" y="2596.03" width="29.7168" height="30.0215" fill="#485E0C"/>
<rect x="383.308" y="2581.02" width="29.7168" height="30.0215" fill="#485E0C"/>
<rect x="398.166" y="2560" width="29.7168" height="30.0215" fill="#485E0C"/>
<rect x="424.847" y="2577.01" width="29.7168" height="30.0215" fill="#485E0C"/>
<rect x="439.705" y="2596.03" width="29.7168" height="30.0215" fill="#485E0C"/>
<rect x="451.592" y="2616.04" width="29.7168" height="30.0215" fill="#485E0C"/>
<rect x="469.422" y="2626.05" width="29.7168" height="30.0215" fill="#485E0C"/>
<rect x="499.139" y="2656.07" width="29.7168" height="30.0215" fill="#485E0C"/>
<rect x="528.856" y="2656.07" width="29.7168" height="30.0215" fill="#485E0C"/>
<rect x="558.573" y="2656.07" width="29.7168" height="30.0215" fill="#485E0C"/>
<rect x="570.46" y="2646.06" width="29.7168" height="30.0215" fill="#485E0C"/>
<rect x="577.393" y="2653.07" width="29.7168" height="30.0215" fill="#485E0C"/>
<rect x="607.11" y="2656.07" width="29.7168" height="30.0215" fill="#485E0C"/>
<rect x="623.95" y="2656.07" width="29.7168" height="30.0215" fill="#485E0C"/>
<rect x="643.761" y="2646.06" width="33.6791" height="30.0215" fill="#485E0C"/>
<rect x="677.44" y="2626.05" width="33.6791" height="30.0215" fill="#485E0C"/>
<rect x="703.195" y="2615.04" width="33.6791" height="30.0215" fill="#485E0C"/>
<rect x="713.1" y="2623.05" width="33.6791" height="30.0215" fill="#485E0C"/>
<rect x="721.025" y="2638.06" width="33.6791" height="30.0215" fill="#485E0C"/>
<rect x="754.704" y="2656.07" width="33.6791" height="30.0215" fill="#485E0C"/>
<rect x="769.562" y="2656.07" width="33.6791" height="30.0215" fill="#485E0C"/>
<rect x="798.289" y="2626.05" width="33.6791" height="30.0215" fill="#485E0C"/>
<rect x="828.005" y="2600.03" width="33.6791" height="30.0215" fill="#485E0C"/>
<rect x="860.694" y="2611.04" width="33.6791" height="30.0215" fill="#485E0C"/>
<rect x="887.439" y="2615.04" width="33.6791" height="30.0215" fill="#485E0C"/>
<rect x="917.156" y="2643.06" width="33.6791" height="30.0215" fill="#485E0C"/>
<rect x="948.854" y="2651.07" width="33.6791" height="30.0215" fill="#485E0C"/>
<rect x="976.59" y="2661.07" width="33.6791" height="30.0215" fill="#485E0C"/>
<rect x="1000.36" y="2626.05" width="33.6791" height="30.0215" fill="#485E0C"/>
<rect x="1018.19" y="2611.04" width="33.6791" height="30.0215" fill="#485E0C"/>
<rect x="1036.02" y="2622.04" width="33.6791" height="30.0215" fill="#485E0C"/>
<rect x="1045.93" y="2637.06" width="33.6791" height="30.0215" fill="#485E0C"/>
<rect x="1054.84" y="2661.07" width="33.6791" height="30.0215" fill="#485E0C"/>
<rect x="1071.68" y="2671.08" width="33.6791" height="15.0108" fill="#485E0C"/>
<rect x="1116.26" y="2656.07" width="33.6791" height="30.0215" fill="#485E0C"/>
<rect x="1135.08" y="2635.05" width="31.698" height="30.0215" fill="#485E0C"/>
<rect x="1150.93" y="2616.04" width="31.698" height="30.0215" fill="#485E0C"/>
<rect x="1166.78" y="2600.03" width="31.698" height="30.0215" fill="#485E0C"/>
<rect x="1183.62" y="2581.02" width="31.698" height="30.0215" fill="#485E0C"/>
<rect x="1195.5" y="2581.02" width="31.698" height="30.0215" fill="#485E0C"/>
<rect x="1208.38" y="2600.03" width="31.698" height="30.0215" fill="#485E0C"/>
<rect x="1222.25" y="2619.04" width="31.698" height="30.0215" fill="#485E0C"/>
<rect x="1234.14" y="2635.05" width="31.698" height="30.0215" fill="#485E0C"/>
<rect x="1251.97" y="2650.06" width="31.698" height="30.0215" fill="#485E0C"/>
<rect x="1333.19" y="2661.07" width="31.698" height="30.0215" fill="#485E0C"/>
<rect x="1344.09" y="2649.06" width="31.698" height="30.0215" fill="#485E0C"/>
<rect x="1354.98" y="2645.06" width="31.698" height="30.0215" fill="#485E0C"/>
<rect x="1420.36" y="2649.06" width="31.698" height="30.0215" fill="#485E0C"/>
<rect x="1449.09" y="2628.05" width="31.698" height="30.0215" fill="#485E0C"/>
<rect x="1479.79" y="2612.04" width="31.698" height="35.0251" fill="#485E0C"/>
<rect x="1490.69" y="2612.04" width="31.698" height="30.0215" fill="#485E0C"/>
<rect x="1507.53" y="2634.05" width="31.698" height="30.0215" fill="#485E0C"/>
<rect x="1509.51" y="2656.07" width="31.698" height="30.0215" fill="#485E0C"/>
<rect x="1541.21" y="2656.07" width="31.698" height="30.0215" fill="#485E0C"/>
<rect x="1565.97" y="2656.07" width="31.698" height="30.0215" fill="#485E0C"/>
<rect x="1578.85" y="2633.05" width="31.698" height="30.0215" fill="#485E0C"/>
<rect x="1596.68" y="2618.04" width="31.698" height="30.0215" fill="#485E0C"/>
<rect x="1617.48" y="2603.03" width="31.698" height="30.0215" fill="#485E0C"/>
<rect x="1633.33" y="2589.02" width="31.698" height="30.0215" fill="#485E0C"/>
<rect x="1643.24" y="2585.02" width="31.698" height="30.0215" fill="#485E0C"/>
<rect x="1658.1" y="2604.03" width="31.698" height="30.0215" fill="#485E0C"/>
<rect x="1670.97" y="2622.04" width="31.698" height="30.0215" fill="#485E0C"/>
<rect x="1686.82" y="2641.06" width="31.698" height="30.0215" fill="#485E0C"/>
<rect x="1702.67" y="2656.07" width="31.698" height="30.0215" fill="#485E0C"/>
<rect x="1733.38" y="2656.07" width="31.698" height="30.0215" fill="#485E0C"/>
<rect x="1784.89" y="2662.07" width="31.698" height="30.0215" fill="#485E0C"/>
<rect x="1793.8" y="2653.07" width="31.698" height="30.0215" fill="#485E0C"/>
<rect x="1800.74" y="2653.07" width="31.698" height="30.0215" fill="#485E0C"/>
<rect x="1808.66" y="2668.08" width="90.1411" height="21.0151" fill="#485E0C"/>
<rect x="1756.16" y="2674.08" width="31.698" height="12.0086" fill="#485E0C"/>
<rect x="1259.89" y="2671.08" width="178.301" height="15.0108" fill="#485E0C"/>
<rect x="986.495" y="2646.06" width="33.6791" height="30.0215" fill="#485E0C"/>
<rect x="802.251" y="2656.07" width="29.7168" height="30.0215" fill="#5A6D24"/>
<rect x="53.3865" y="2626.05" width="29.7168" height="30.0215" fill="#5A6D24"/>
<rect x="831.968" y="2626.05" width="29.7168" height="30.0215" fill="#5A6D24"/>
<rect x="53.3865" y="2656.07" width="29.7168" height="30.0215" fill="#5A6D24"/>
<rect x="831.968" y="2656.07" width="29.7168" height="30.0215" fill="#5A6D24"/>
<rect x="83.1033" y="2656.07" width="29.7168" height="30.0215" fill="#5A6D24"/>
<rect x="861.685" y="2656.07" width="29.7168" height="30.0215" fill="#5A6D24"/>
<rect x="83.1033" y="2641.06" width="29.7168" height="30.0215" fill="#5A6D24"/>
<rect x="861.685" y="2641.06" width="29.7168" height="30.0215" fill="#5A6D24"/>
<rect x="112.82" y="2635.05" width="29.7168" height="30.0215" fill="#5A6D24"/>
<rect x="891.401" y="2635.05" width="29.7168" height="30.0215" fill="#5A6D24"/>
<rect x="112.82" y="2661.07" width="29.7168" height="30.0215" fill="#5A6D24"/>
<rect x="891.401" y="2661.07" width="29.7168" height="30.0215" fill="#5A6D24"/>
<rect x="142.537" y="2671.08" width="29.7168" height="30.0215" fill="#5A6D24"/>
<rect x="921.118" y="2671.08" width="29.7168" height="30.0215" fill="#5A6D24"/>
<rect x="172.254" y="2656.07" width="29.7168" height="30.0215" fill="#5A6D24"/>
<rect x="950.835" y="2656.07" width="29.7168" height="30.0215" fill="#5A6D24"/>
<rect x="193.056" y="2676.08" width="29.7168" height="30.0215" fill="#5A6D24"/>
<rect x="971.637" y="2676.08" width="29.7168" height="30.0215" fill="#5A6D24"/>
<rect x="213.857" y="2650.06" width="29.7168" height="30.0215" fill="#5A6D24"/>
<rect x="992.439" y="2650.06" width="29.7168" height="30.0215" fill="#5A6D24"/>
<rect x="228.716" y="2631.05" width="29.7168" height="30.0215" fill="#5A6D24"/>
<rect x="1007.3" y="2631.05" width="29.7168" height="30.0215" fill="#5A6D24"/>
<rect x="243.574" y="2616.04" width="29.7168" height="30.0215" fill="#5A6D24"/>
<rect x="1022.16" y="2616.04" width="29.7168" height="30.0215" fill="#5A6D24"/>
<rect x="255.461" y="2631.05" width="29.7168" height="30.0215" fill="#5A6D24"/>
<rect x="1034.04" y="2631.05" width="29.7168" height="30.0215" fill="#5A6D24"/>
<rect x="267.348" y="2646.06" width="29.7168" height="30.0215" fill="#5A6D24"/>
<rect x="1045.93" y="2646.06" width="29.7168" height="30.0215" fill="#5A6D24"/>
<rect x="243.574" y="2651.07" width="29.7168" height="30.0215" fill="#5A6D24"/>
<rect x="1022.16" y="2651.07" width="29.7168" height="30.0215" fill="#5A6D24"/>
<rect x="219.801" y="2671.08" width="29.7168" height="30.0215" fill="#5A6D24"/>
<rect x="998.382" y="2671.08" width="29.7168" height="30.0215" fill="#5A6D24"/>
<rect x="243.574" y="2666.08" width="29.7168" height="30.0215" fill="#5A6D24"/>
<rect x="1022.16" y="2666.08" width="29.7168" height="30.0215" fill="#5A6D24"/>
<rect x="273.291" y="2665.08" width="29.7168" height="30.0215" fill="#5A6D24"/>
<rect x="1051.87" y="2665.08" width="29.7168" height="30.0215" fill="#5A6D24"/>
<rect x="288.15" y="2676.08" width="29.7168" height="30.0215" fill="#5A6D24"/>
<rect x="1066.73" y="2676.08" width="29.7168" height="30.0215" fill="#5A6D24"/>
<rect x="344.612" y="2661.07" width="29.7168" height="30.0215" fill="#5A6D24"/>
<rect x="1123.19" y="2661.07" width="29.7168" height="30.0215" fill="#5A6D24"/>
<rect x="1572.91" y="2667.08" width="29.7168" height="30.0215" fill="#5A6D24"/>
<rect x="362.442" y="2641.06" width="29.7168" height="30.0215" fill="#5A6D24"/>
<rect x="1141.02" y="2641.06" width="29.7168" height="30.0215" fill="#5A6D24"/>
<rect x="1590.74" y="2647.06" width="29.7168" height="30.0215" fill="#5A6D24"/>
<rect x="380.272" y="2626.05" width="29.7168" height="30.0215" fill="#5A6D24"/>
<rect x="1158.85" y="2626.05" width="29.7168" height="30.0215" fill="#5A6D24"/>
<rect x="1608.57" y="2632.05" width="29.7168" height="30.0215" fill="#5A6D24"/>
<rect x="395.13" y="2607.03" width="29.7168" height="30.0215" fill="#5A6D24"/>
<rect x="1173.71" y="2607.03" width="29.7168" height="30.0215" fill="#5A6D24"/>
<rect x="1623.43" y="2613.04" width="29.7168" height="30.0215" fill="#5A6D24"/>
<rect x="409.989" y="2590.02" width="29.7168" height="30.0215" fill="#5A6D24"/>
<rect x="1188.57" y="2590.02" width="29.7168" height="30.0215" fill="#5A6D24"/>
<rect x="1638.28" y="2596.03" width="29.7168" height="30.0215" fill="#5A6D24"/>
<rect x="424.847" y="2607.03" width="29.7168" height="30.0215" fill="#5A6D24"/>
<rect x="1203.43" y="2607.03" width="29.7168" height="30.0215" fill="#5A6D24"/>
<rect x="1653.14" y="2613.04" width="29.7168" height="30.0215" fill="#5A6D24"/>
<rect x="409.989" y="2626.05" width="29.7168" height="30.0215" fill="#5A6D24"/>
<rect x="1188.57" y="2626.05" width="29.7168" height="30.0215" fill="#5A6D24"/>
<rect x="1638.28" y="2632.05" width="29.7168" height="30.0215" fill="#5A6D24"/>
<rect x="439.705" y="2626.05" width="29.7168" height="30.0215" fill="#5A6D24"/>
<rect x="1218.29" y="2626.05" width="29.7168" height="30.0215" fill="#5A6D24"/>
<rect x="1668" y="2632.05" width="29.7168" height="30.0215" fill="#5A6D24"/>
<rect x="392.158" y="2641.06" width="29.7168" height="30.0215" fill="#5A6D24"/>
<rect x="1170.74" y="2641.06" width="29.7168" height="30.0215" fill="#5A6D24"/>
<rect x="1620.45" y="2647.06" width="29.7168" height="30.0215" fill="#5A6D24"/>
<rect x="421.875" y="2641.06" width="29.7168" height="30.0215" fill="#5A6D24"/>
<rect x="1200.46" y="2641.06" width="29.7168" height="30.0215" fill="#5A6D24"/>
<rect x="1650.17" y="2647.06" width="29.7168" height="30.0215" fill="#5A6D24"/>
<rect x="451.592" y="2641.06" width="29.7168" height="30.0215" fill="#5A6D24"/>
<rect x="1230.17" y="2641.06" width="29.7168" height="30.0215" fill="#5A6D24"/>
<rect x="1679.89" y="2647.06" width="29.7168" height="30.0215" fill="#5A6D24"/>
<rect x="469.422" y="2656.07" width="29.7168" height="30.0215" fill="#5A6D24"/>
<rect x="1248" y="2656.07" width="29.7168" height="30.0215" fill="#5A6D24"/>
<rect x="1697.72" y="2662.07" width="29.7168" height="30.0215" fill="#5A6D24"/>
<rect x="550.648" y="2675.08" width="29.7168" height="30.0215" fill="#5A6D24"/>
<rect x="1329.23" y="2675.08" width="29.7168" height="30.0215" fill="#5A6D24"/>
<rect x="1778.94" y="2681.09" width="29.7168" height="30.0215" fill="#5A6D24"/>
<rect x="570.46" y="2658.07" width="29.7168" height="30.0215" fill="#5A6D24"/>
<rect x="1349.04" y="2658.07" width="29.7168" height="30.0215" fill="#5A6D24"/>
<rect x="1798.76" y="2664.07" width="29.7168" height="30.0215" fill="#5A6D24"/>
<rect x="577.393" y="2671.08" width="29.7168" height="30.0215" fill="#5A6D24"/>
<rect x="1355.97" y="2671.08" width="29.7168" height="30.0215" fill="#5A6D24"/>
<rect x="1805.69" y="2677.08" width="29.7168" height="30.0215" fill="#5A6D24"/>
<rect x="647.723" y="2656.07" width="29.7168" height="30.0215" fill="#5A6D24"/>
<rect x="1426.3" y="2656.07" width="29.7168" height="30.0215" fill="#5A6D24"/>
<rect x="1876.02" y="2662.07" width="29.7168" height="30.0215" fill="#5A6D24"/>
<rect x="677.44" y="2645.06" width="29.7168" height="30.0215" fill="#5A6D24"/>
<rect x="1456.02" y="2645.06" width="29.7168" height="30.0215" fill="#5A6D24"/>
<rect x="1905.74" y="2651.07" width="29.7168" height="30.0215" fill="#5A6D24"/>
<rect x="707.157" y="2626.05" width="29.7168" height="30.0215" fill="#5A6D24"/>
<rect x="1485.74" y="2626.05" width="29.7168" height="30.0215" fill="#5A6D24"/>
<rect x="707.157" y="2653.07" width="29.7168" height="30.0215" fill="#5A6D24"/>
<rect x="1485.74" y="2653.07" width="29.7168" height="30.0215" fill="#5A6D24"/>
<rect x="677.44" y="2658.07" width="29.7168" height="30.0215" fill="#5A6D24"/>
<rect x="1456.02" y="2658.07" width="29.7168" height="30.0215" fill="#5A6D24"/>
<rect x="1905.74" y="2664.07" width="29.7168" height="30.0215" fill="#5A6D24"/>
<rect x="707.157" y="2656.07" width="29.7168" height="30.0215" fill="#5A6D24"/>
<rect x="1485.74" y="2656.07" width="29.7168" height="30.0215" fill="#5A6D24"/>
<rect x="724.987" y="2658.07" width="29.7168" height="30.0215" fill="#5A6D24"/>
<rect x="1503.57" y="2658.07" width="29.7168" height="30.0215" fill="#5A6D24"/>
<rect x="717.063" y="2641.06" width="29.7168" height="30.0215" fill="#5A6D24"/>
<rect x="1495.64" y="2641.06" width="29.7168" height="30.0215" fill="#5A6D24"/>
<rect x="559.563" y="2668.08" width="21.7924" height="30.0215" fill="#5A6D24"/>
<rect x="1338.14" y="2668.08" width="21.7924" height="30.0215" fill="#5A6D24"/>
<rect x="1787.86" y="2674.08" width="21.7924" height="30.0215" fill="#5A6D24"/>
<rect x="439.705" y="2656.07" width="29.7168" height="30.0215" fill="#5A6D24"/>
<rect x="1218.29" y="2656.07" width="29.7168" height="30.0215" fill="#5A6D24"/>
<rect x="1668" y="2662.07" width="29.7168" height="30.0215" fill="#5A6D24"/>
<rect x="409.989" y="2656.07" width="29.7168" height="30.0215" fill="#5A6D24"/>
<rect x="1188.57" y="2656.07" width="29.7168" height="30.0215" fill="#5A6D24"/>
<rect x="1638.28" y="2662.07" width="29.7168" height="30.0215" fill="#5A6D24"/>
<rect x="380.272" y="2656.07" width="29.7168" height="30.0215" fill="#5A6D24"/>
<rect x="1158.85" y="2656.07" width="29.7168" height="30.0215" fill="#5A6D24"/>
<rect x="1608.57" y="2662.07" width="29.7168" height="30.0215" fill="#5A6D24"/>
<rect x="369.376" y="2656.07" width="29.7168" height="30.0215" fill="#5A6D24"/>
<rect x="1147.96" y="2656.07" width="29.7168" height="30.0215" fill="#5A6D24"/>
<rect x="1597.67" y="2662.07" width="29.7168" height="30.0215" fill="#5A6D24"/>
<rect width="40.3549" height="40.9621" transform="matrix(0.999994 0.00339995 -0.00326689 0.999995 596.134 3815.06)" fill="#98BD4C"/>
<rect width="40.3549" height="40.9621" transform="matrix(0.999994 0.0033829 -0.00328336 0.999995 609.586 3795.04)" fill="#98BD4C"/>
<rect width="40.3549" height="40.9621" transform="matrix(0.999994 0.0033829 -0.00328336 0.999995 635.593 3765)" fill="#98BD4C"/>
<rect width="40.3549" height="40.9621" transform="matrix(0.999994 0.0033829 -0.00328336 0.999995 660.702 3765)" fill="#98BD4C"/>
<rect width="40.3549" height="40.9621" transform="matrix(0.999994 0.0033829 -0.00328336 0.999995 615.864 3814.93)" fill="#A7CB5C"/>
<rect width="40.3549" height="40.9621" transform="matrix(0.999994 0.0033829 -0.00328336 0.999995 656.353 3774.1)" fill="#A7CB5C"/>
<rect width="40.3549" height="40.9621" transform="matrix(0.999994 0.0033829 -0.00328336 0.999995 656.218 3815.06)" fill="#A7CB5C"/>
<rect width="40.3549" height="40.9621" transform="matrix(0.999994 0.0033829 -0.00328336 0.999995 696.573 3815.2)" fill="#A7CB5C"/>
<rect width="40.3549" height="40.9621" transform="matrix(0.999994 0.0033829 -0.00328336 0.999995 671.508 3801.46)" fill="#A7CB5C"/>
<rect width="40.3549" height="40.9621" transform="matrix(0.999994 0.0033829 -0.00328336 0.999995 640.121 3801.36)" fill="#A7CB5C"/>
<rect width="60.1129" height="61.0173" transform="matrix(0.999994 0.00339995 -0.00326689 0.999995 66.1993 3574.58)" fill="#98BD4C"/>
<rect width="60.1129" height="61.0173" transform="matrix(0.999994 0.0033829 -0.00328336 0.999995 86.238 3544.75)" fill="#98BD4C"/>
<rect width="60.1129" height="61.0173" transform="matrix(0.999994 0.0033829 -0.00328336 0.999995 124.977 3500)" fill="#98BD4C"/>
<rect width="60.1129" height="61.0173" transform="matrix(0.999994 0.0033829 -0.00328336 0.999995 162.381 3500)" fill="#98BD4C"/>
<rect width="60.1129" height="61.0173" transform="matrix(0.999994 0.0033829 -0.00328336 0.999995 95.5889 3574.37)" fill="#A7CB5C"/>
<rect width="60.1129" height="61.0173" transform="matrix(0.999994 0.0033829 -0.00328336 0.999995 155.902 3513.56)" fill="#A7CB5C"/>
<rect width="60.1129" height="61.0173" transform="matrix(0.999994 0.0033829 -0.00328336 0.999995 155.701 3574.58)" fill="#A7CB5C"/>
<rect width="60.1129" height="61.0173" transform="matrix(0.999994 0.0033829 -0.00328336 0.999995 215.814 3574.78)" fill="#A7CB5C"/>
<rect width="60.1129" height="61.0173" transform="matrix(0.999994 0.0033829 -0.00328336 0.999995 178.477 3554.31)" fill="#A7CB5C"/>
<rect width="60.1129" height="61.0173" transform="matrix(0.999994 0.0033829 -0.00328336 0.999995 131.723 3554.16)" fill="#A7CB5C"/>
<rect width="44.333" height="45" transform="matrix(0.999994 0.00339995 -0.00326689 0.999995 202.931 2927)" fill="#98BD4C"/>
<rect width="44.333" height="45" transform="matrix(0.999994 0.0033829 -0.00328336 0.999995 217.709 2905)" fill="#98BD4C"/>
<rect width="44.333" height="45" transform="matrix(0.999994 0.0033829 -0.00328336 0.999995 246.279 2872)" fill="#98BD4C"/>
<rect width="44.333" height="45" transform="matrix(0.999994 0.0033829 -0.00328336 0.999995 273.864 2872)" fill="#98BD4C"/>
<rect width="44.333" height="45" transform="matrix(0.999994 0.0033829 -0.00328336 0.999995 224.605 2926.85)" fill="#A7CB5C"/>
<rect width="44.333" height="45" transform="matrix(0.999994 0.0033829 -0.00328336 0.999995 269.086 2882)" fill="#A7CB5C"/>
<rect width="44.333" height="45" transform="matrix(0.999994 0.0033829 -0.00328336 0.999995 268.938 2927)" fill="#A7CB5C"/>
<rect width="44.333" height="45" transform="matrix(0.999994 0.0033829 -0.00328336 0.999995 313.271 2927.15)" fill="#A7CB5C"/>
<rect width="44.333" height="45" transform="matrix(0.999994 0.0033829 -0.00328336 0.999995 285.735 2912.06)" fill="#A7CB5C"/>
<rect width="44.333" height="45" transform="matrix(0.999994 0.0033829 -0.00328336 0.999995 251.254 2911.94)" fill="#A7CB5C"/>
<rect width="30.9405" height="31.406" transform="matrix(0.999994 0.00339995 -0.00326689 0.999995 914.103 3272.39)" fill="#98BD4C"/>
<rect width="30.9405" height="31.406" transform="matrix(0.999994 0.0033829 -0.00328336 0.999995 924.417 3257.03)" fill="#98BD4C"/>
<rect width="30.9405" height="31.406" transform="matrix(0.999994 0.0033829 -0.00328336 0.999995 944.356 3234)" fill="#98BD4C"/>
<rect width="30.9405" height="31.406" transform="matrix(0.999994 0.0033829 -0.00328336 0.999995 963.608 3234)" fill="#98BD4C"/>
<rect width="30.9405" height="31.406" transform="matrix(0.999994 0.0033829 -0.00328336 0.999995 929.23 3272.28)" fill="#A7CB5C"/>
<rect width="30.9405" height="31.406" transform="matrix(0.999994 0.0033829 -0.00328336 0.999995 960.273 3240.98)" fill="#A7CB5C"/>
<rect width="30.9405" height="31.406" transform="matrix(0.999994 0.0033829 -0.00328336 0.999995 960.17 3272.39)" fill="#A7CB5C"/>
<rect width="30.9405" height="31.406" transform="matrix(0.999994 0.0033829 -0.00328336 0.999995 991.11 3272.49)" fill="#A7CB5C"/>
<rect width="30.9405" height="31.406" transform="matrix(0.999994 0.0033829 -0.00328336 0.999995 971.893 3261.96)" fill="#A7CB5C"/>
<rect width="30.9405" height="31.406" transform="matrix(0.999994 0.0033829 -0.00328336 0.999995 947.828 3261.87)" fill="#A7CB5C"/>
<rect width="33.1505" height="33.6493" transform="matrix(0.999994 0.00339995 -0.00326689 0.999995 1507.11 2916.13)" fill="#98BD4C"/>
<rect width="33.1505" height="33.6493" transform="matrix(0.999994 0.0033829 -0.00328336 0.999995 1518.16 2899.68)" fill="#98BD4C"/>
<rect width="33.1505" height="33.6493" transform="matrix(0.999994 0.0033829 -0.00328336 0.999995 1539.52 2875)" fill="#98BD4C"/>
<rect width="33.1505" height="33.6493" transform="matrix(0.999994 0.0033829 -0.00328336 0.999995 1560.15 2875)" fill="#98BD4C"/>
<rect width="33.1505" height="33.6493" transform="matrix(0.999994 0.0033829 -0.00328336 0.999995 1523.32 2916.01)" fill="#A7CB5C"/>
<rect width="33.1505" height="33.6493" transform="matrix(0.999994 0.0033829 -0.00328336 0.999995 1556.58 2882.48)" fill="#A7CB5C"/>
<rect width="33.1505" height="33.6493" transform="matrix(0.999994 0.0033829 -0.00328336 0.999995 1556.47 2916.13)" fill="#A7CB5C"/>
<rect width="33.1505" height="33.6493" transform="matrix(0.999994 0.0033829 -0.00328336 0.999995 1589.62 2916.24)" fill="#A7CB5C"/>
<rect width="33.1505" height="33.6493" transform="matrix(0.999994 0.0033829 -0.00328336 0.999995 1569.03 2904.95)" fill="#A7CB5C"/>
<rect width="33.1505" height="33.6493" transform="matrix(0.999994 0.0033829 -0.00328336 0.999995 1543.24 2904.87)" fill="#A7CB5C"/>
<rect width="62.4553" height="63.3949" transform="matrix(0.999994 0.00339995 -0.00326689 0.999995 1640.21 3381.48)" fill="#98BD4C"/>
<rect width="62.4553" height="63.3949" transform="matrix(0.999994 0.0033829 -0.00328336 0.999995 1661.03 3350.49)" fill="#98BD4C"/>
<rect width="62.4553" height="63.3949" transform="matrix(0.999994 0.0033829 -0.00328336 0.999995 1701.28 3304)" fill="#98BD4C"/>
<rect width="62.4553" height="63.3949" transform="matrix(0.999994 0.0033829 -0.00328336 0.999995 1740.14 3304)" fill="#98BD4C"/>
<rect width="62.4553" height="63.3949" transform="matrix(0.999994 0.0033829 -0.00328336 0.999995 1670.74 3381.27)" fill="#A7CB5C"/>
<rect width="62.4553" height="63.3949" transform="matrix(0.999994 0.0033829 -0.00328336 0.999995 1733.4 3318.09)" fill="#A7CB5C"/>
<rect width="62.4553" height="63.3949" transform="matrix(0.999994 0.0033829 -0.00328336 0.999995 1733.2 3381.48)" fill="#A7CB5C"/>
<rect width="62.4553" height="63.3949" transform="matrix(0.999994 0.0033829 -0.00328336 0.999995 1795.65 3381.69)" fill="#A7CB5C"/>
<rect width="62.4553" height="63.3949" transform="matrix(0.999994 0.0033829 -0.00328336 0.999995 1756.86 3360.43)" fill="#A7CB5C"/>
<rect width="62.4553" height="63.3949" transform="matrix(0.999994 0.0033829 -0.00328336 0.999995 1708.28 3360.27)" fill="#A7CB5C"/>
<rect width="44.333" height="45" transform="matrix(0.999994 0.00339995 -0.00326689 0.999995 1470.85 3911)" fill="#98BD4C"/>
<rect width="44.333" height="45" transform="matrix(0.999994 0.0033829 -0.00328336 0.999995 1485.63 3889)" fill="#98BD4C"/>
<rect width="44.333" height="45" transform="matrix(0.999994 0.0033829 -0.00328336 0.999995 1514.2 3856)" fill="#98BD4C"/>
<rect width="44.333" height="45" transform="matrix(0.999994 0.0033829 -0.00328336 0.999995 1541.79 3856)" fill="#98BD4C"/>
<rect width="44.333" height="45" transform="matrix(0.999994 0.0033829 -0.00328336 0.999995 1492.53 3910.85)" fill="#A7CB5C"/>
<rect width="44.333" height="45" transform="matrix(0.999994 0.0033829 -0.00328336 0.999995 1537.01 3866)" fill="#A7CB5C"/>
<rect width="44.333" height="45" transform="matrix(0.999994 0.0033829 -0.00328336 0.999995 1536.86 3911)" fill="#A7CB5C"/>
<rect width="44.333" height="45" transform="matrix(0.999994 0.0033829 -0.00328336 0.999995 1581.19 3911.15)" fill="#A7CB5C"/>
<rect width="44.333" height="45" transform="matrix(0.999994 0.0033829 -0.00328336 0.999995 1553.66 3896.06)" fill="#A7CB5C"/>
<rect width="44.333" height="45" transform="matrix(0.999994 0.0033829 -0.00328336 0.999995 1519.18 3895.94)" fill="#A7CB5C"/>
</g>
<defs>
<clipPath id="clip0">
<rect width="1920" height="3939" fill="white"/>
</clipPath>
</defs>
</svg>
