<svg width="30" height="40" viewBox="0 0 30 40" fill="none" xmlns="http://www.w3.org/2000/svg">
<rect x="26.7841" y="5.55066" width="1.32159" height="1.40969" fill="#FB4C41"/>
<rect x="23.9648" y="5.11011" width="1.32159" height="1.40969" fill="#FB4C41"/>
<rect x="25.1101" y="4.44934" width="1.32159" height="1.40969" fill="#FB4C41"/>
<rect x="26.7841" y="2.59912" width="1.32159" height="1.40969" fill="#FB4C41"/>
<rect x="24.141" y="4.71362" width="1.32159" height="1.40969" fill="#FB4C41"/>
<rect x="23.4802" y="3.74451" width="1.32159" height="1.40969" fill="#FB4C41"/>
<rect x="25.1542" y="1.89429" width="1.32159" height="1.40969" fill="#FB4C41"/>
<rect x="22.8634" y="4.31714" width="1.32159" height="1.40969" fill="#FB4C41"/>
<rect x="24.5374" y="2.46692" width="1.32159" height="1.40969" fill="#FB4C41"/>
<rect x="12.6431" y="4.97791" width="1.32159" height="1.32159" fill="#FB4C41"/>
<rect x="11.3215" y="3.12781" width="1.32159" height="1.32159" fill="#FB4C41"/>
<rect x="12.2467" y="6.07935" width="1.32159" height="1.32159" fill="#FB4C41"/>
<rect x="3.21588" y="7.53308" width="1.32159" height="1.32159" fill="#FB4C41"/>
<rect x="17.4009" y="11.9824" width="1.32159" height="1.32159" fill="#FB4C41"/>
<rect x="17.3568" y="12.2026" width="1.32159" height="1.32159" fill="#FB4C41"/>
<rect x="10.6608" y="29.4273" width="1.32159" height="1.32159" fill="#FB4C41"/>
<rect x="11.3215" y="27.533" width="3.96476" height="2.64317" fill="#FB4C41"/>
<rect x="11.3215" y="24.9339" width="3.96476" height="2.64317" fill="#FB4C41"/>
<rect x="15.2864" y="27.533" width="3.96476" height="2.64317" fill="#FB4C41"/>
<rect x="15.2864" y="24.9339" width="3.96476" height="2.64317" fill="#FB4C41"/>
<rect x="16.1674" y="27.533" width="3.96476" height="2.64317" fill="#FB4C41"/>
<rect x="16.1674" y="24.9339" width="3.96476" height="2.64317" fill="#FB4C41"/>
<rect x="16.1674" y="22.511" width="3.96476" height="2.64317" fill="#FB4C41"/>
<rect x="13.4362" y="23.0396" width="3.96476" height="2.64317" fill="#FB4C41"/>
<rect x="15.4185" y="20.837" width="3.96476" height="2.64317" fill="#FB4C41"/>
<rect x="12.2026" y="23.7445" width="3.96476" height="2.64317" fill="#FB4C41"/>
<rect x="9.33923" y="31.0573" width="1.32159" height="1.32159" fill="#FB4C41"/>
<rect x="9.69159" y="31.8502" width="1.32159" height="1.32159" fill="#FB4C41"/>
<rect x="8.54626" y="32.1586" width="1.32159" height="1.32159" fill="#FB4C41"/>
<rect x="8.01764" y="32.7753" width="1.32159" height="1.32159" fill="#FB4C41"/>
<rect x="7.35687" y="33.4802" width="1.32159" height="1.32159" fill="#FB4C41"/>
<rect x="6.82819" y="33.4802" width="1.32159" height="1.32159" fill="#FB4C41"/>
<rect x="6.56384" y="34.1409" width="1.32159" height="1.32159" fill="#FB4C41"/>
<rect x="6.82819" y="35.022" width="1.32159" height="1.32159" fill="#FB4C41"/>
<rect x="6.69604" y="35.859" width="1.32159" height="1.32159" fill="#FB4C41"/>
<rect x="7.62115" y="35.6828" width="1.32159" height="1.32159" fill="#FB4C41"/>
<rect x="8.28198" y="36.5198" width="1.32159" height="1.32159" fill="#FB4C41"/>
<rect x="8.37" y="37.4449" width="1.32159" height="1.32159" fill="#FB4C41"/>
<rect x="9.47137" y="37.0044" width="1.32159" height="1.32159" fill="#FB4C41"/>
<rect x="10.3525" y="37.4449" width="1.32159" height="1.32159" fill="#FB4C41"/>
<rect x="11.3215" y="38.0176" width="1.32159" height="1.32159" fill="#FB4C41"/>
<rect x="12.9075" y="37.8414" width="1.32159" height="1.32159" fill="#FB4C41"/>
<rect x="14.2731" y="38.1057" width="1.32159" height="1.32159" fill="#FB4C41"/>
<rect x="15.2864" y="38.0176" width="1.32159" height="1.32159" fill="#FB4C41"/>
<rect x="16.1674" y="38.1938" width="1.32159" height="1.32159" fill="#FB4C41"/>
<rect x="17.4009" y="38.1938" width="1.32159" height="1.32159" fill="#FB4C41"/>
<rect x="18.7225" y="38.1938" width="1.32159" height="1.32159" fill="#FB4C41"/>
<rect x="19.9118" y="38.1938" width="1.32159" height="1.32159" fill="#FB4C41"/>
<rect x="20.925" y="37.4449" width="1.32159" height="1.32159" fill="#FB4C41"/>
<rect x="21.9823" y="37.0044" width="1.32159" height="1.32159" fill="#FB4C41"/>
<rect x="22.511" y="35.6828" width="1.32159" height="1.32159" fill="#FB4C41"/>
<rect x="23.3039" y="35.9471" width="1.32159" height="1.32159" fill="#FB4C41"/>
<rect x="23.6123" y="35.4185" width="1.32159" height="1.32159" fill="#FB4C41"/>
<rect x="23.9648" y="34.6255" width="1.32159" height="1.32159" fill="#FB4C41"/>
<rect x="23.6123" y="33.7004" width="1.32159" height="1.32159" fill="#FB4C41"/>
<rect x="22.8194" y="33.4802" width="1.32159" height="1.32159" fill="#FB4C41"/>
<rect x="22.5551" y="32.511" width="1.32159" height="1.32159" fill="#FB4C41"/>
<rect x="21.4978" y="32.3788" width="1.32159" height="1.32159" fill="#FB4C41"/>
<rect x="21.5859" y="31.0573" width="1.32159" height="1.32159" fill="#FB4C41"/>
<rect x="20.3965" y="30.837" width="1.32159" height="1.32159" fill="#FB4C41"/>
<rect x="20.0441" y="29.7357" width="1.32159" height="1.32159" fill="#FB4C41"/>
<rect x="12.6431" y="38.326" width="1.76211" height="1.32159" fill="#FB4C41"/>
<rect x="11.3215" y="29.9559" width="3.96476" height="2.64317" fill="#FB4C41"/>
<rect x="10" y="31.4978" width="3.96476" height="2.64317" fill="#FB4C41"/>
<rect x="8.67841" y="32.8194" width="3.96476" height="2.64317" fill="#FB4C41"/>
<rect x="7.35687" y="34.1409" width="3.96476" height="2.64317" fill="#FB4C41"/>
<rect x="8.67841" y="35.4625" width="3.96476" height="2.64317" fill="#FB4C41"/>
<rect x="11.3215" y="36.3436" width="3.96476" height="2.64317" fill="#FB4C41"/>
<rect x="15.2864" y="36.3436" width="3.96476" height="2.64317" fill="#FB4C41"/>
<rect x="16.9163" y="36.3436" width="3.96476" height="2.64317" fill="#FB4C41"/>
<rect x="16.6079" y="35.4625" width="3.96476" height="2.64317" fill="#FB4C41"/>
<rect x="19.2511" y="35.4625" width="3.96476" height="2.64317" fill="#FB4C41"/>
<rect x="11.9824" y="34.1409" width="3.96476" height="2.64317" fill="#FB4C41"/>
<rect x="20.5727" y="34.1409" width="3.96476" height="2.64317" fill="#FB4C41"/>
<rect x="19.2511" y="32.8194" width="3.96476" height="2.64317" fill="#FB4C41"/>
<rect x="18.1938" y="31.4978" width="3.96476" height="2.64317" fill="#FB4C41"/>
<rect x="16.6079" y="29.9559" width="3.96476" height="2.64317" fill="#FB4C41"/>
<rect x="14.2291" y="29.9559" width="3.96476" height="2.64317" fill="#FB4C41"/>
<rect x="12.2467" y="33.4361" width="3.96476" height="2.64317" fill="#FB4C41"/>
<rect x="18.1938" y="32.8194" width="3.96476" height="2.64317" fill="#FB4C41"/>
<rect x="15.2864" y="32.5991" width="3.96476" height="2.64317" fill="#FB4C41"/>
<rect x="15.5067" y="33.7004" width="3.96476" height="2.64317" fill="#FB4C41"/>
<rect x="12.7753" y="31.8502" width="3.96476" height="2.64317" fill="#FB4C41"/>
<rect x="10" y="30.1762" width="1.32159" height="1.32159" fill="#FB4C41"/>
<rect x="12.6431" y="31.4978" width="1.32159" height="1.32159" fill="#FB4C41"/>
<rect x="11.3215" y="32.8194" width="1.32159" height="1.32159" fill="#FB4C41"/>
<rect x="12.6431" y="32.8194" width="1.32159" height="1.32159" fill="#FB4C41"/>
<rect x="14.0969" y="32.7753" width="1.32159" height="1.32159" fill="#FB4C41"/>
<rect x="11.4537" y="34.1409" width="1.32159" height="1.32159" fill="#FB4C41"/>
<rect x="10" y="34.0969" width="1.32159" height="1.32159" fill="#FB4C41"/>
<rect x="10.5286" y="33.0397" width="1.32159" height="1.32159" fill="#FB4C41"/>
<rect x="9.20703" y="34.8018" width="1.32159" height="1.32159" fill="#FB4C41"/>
<rect x="11.1453" y="34.5815" width="1.32159" height="1.32159" fill="#FB4C41"/>
<rect x="11.7181" y="35.6828" width="1.32159" height="1.32159" fill="#FB4C41"/>
<rect x="15.9471" y="37.6652" width="1.32159" height="1.32159" fill="#FB4C41"/>
<rect x="16.652" y="37.0044" width="1.32159" height="1.32159" fill="#FB4C41"/>
<rect x="17.6652" y="37.8414" width="1.32159" height="1.32159" fill="#FB4C41"/>
<rect x="11.3215" y="23.6123" width="1.32159" height="1.32159" fill="#FB4C41"/>
<rect x="12.1146" y="22.511" width="1.32159" height="1.32159" fill="#FB4C41"/>
<rect x="13.304" y="21.718" width="1.32159" height="1.32159" fill="#FB4C41"/>
<rect x="14.0969" y="21.718" width="1.32159" height="1.32159" fill="#FB4C41"/>
<rect x="14.0969" y="20.5727" width="1.32159" height="1.32159" fill="#FB4C41"/>
<rect x="15.2864" y="21.3216" width="1.32159" height="1.32159" fill="#FB4C41"/>
<rect x="16.6079" y="20" width="1.32159" height="1.32159" fill="#FB4C41"/>
<rect x="11.3215" y="22.2908" width="1.32159" height="1.32159" fill="#FB4C41"/>
<rect x="11.3215" y="21.0573" width="1.32159" height="1.32159" fill="#FB4C41"/>
<rect x="10.8811" y="20.5727" width="1.32159" height="1.32159" fill="#FB4C41"/>
<rect x="11.2335" y="20.9692" width="1.32159" height="1.32159" fill="#FB4C41"/>
<rect x="10.8811" y="20.9692" width="1.32159" height="1.32159" fill="#FB4C41"/>
<rect x="10.2202" y="19.6476" width="1.32159" height="1.32159" fill="#FB4C41"/>
<rect x="9.55951" y="18.326" width="1.32159" height="1.32159" fill="#FB4C41"/>
<rect x="8.89862" y="17.0044" width="1.32159" height="1.32159" fill="#FB4C41"/>
<rect x="8.23792" y="15.6829" width="1.32159" height="1.32159" fill="#FB4C41"/>
<rect x="9.55951" y="15.6829" width="1.32159" height="1.32159" fill="#FB4C41"/>
<rect x="10.8811" y="15.6829" width="1.32159" height="1.32159" fill="#FB4C41"/>
<rect x="12.5551" y="14.7136" width="1.32159" height="1.32159" fill="#FB4C41"/>
<rect x="12.2026" y="15.6829" width="1.32159" height="1.32159" fill="#FB4C41"/>
<rect x="12.6431" y="15.6829" width="1.32159" height="1.32159" fill="#FB4C41"/>
<rect x="12.6431" y="14.3612" width="1.32159" height="1.32159" fill="#FB4C41"/>
<rect x="11.3215" y="14.3612" width="1.32159" height="1.32159" fill="#FB4C41"/>
<rect x="10.0441" y="14.3612" width="1.32159" height="1.32159" fill="#FB4C41"/>
<rect x="8.89862" y="14.3612" width="1.32159" height="1.32159" fill="#FB4C41"/>
<rect x="7.57709" y="14.3612" width="1.32159" height="1.32159" fill="#FB4C41"/>
<rect x="7.44489" y="15.3744" width="1.32159" height="1.32159" fill="#FB4C41"/>
<rect x="6.78418" y="14.0529" width="1.32159" height="1.32159" fill="#FB4C41"/>
<rect x="7.1806" y="12.8634" width="1.32159" height="1.32159" fill="#FB4C41"/>
<rect x="6.12329" y="12.7313" width="1.32159" height="1.32159" fill="#FB4C41"/>
<rect x="5.46259" y="11.4097" width="1.32159" height="1.32159" fill="#FB4C41"/>
<rect x="3.87665" y="10.0881" width="1.32159" height="1.32159" fill="#FB4C41"/>
<rect x="2.11456" y="8.67847" width="1.32159" height="1.32159" fill="#FB4C41"/>
<rect y="5.63879" width="1.32159" height="1.32159" fill="#FB4C41"/>
<rect x="5.46259" y="9.20703" width="1.32159" height="1.32159" fill="#FB4C41"/>
<rect x="3.34808" y="6.16736" width="1.32159" height="1.32159" fill="#FB4C41"/>
<rect x="3.78857" y="7.79736" width="1.32159" height="1.32159" fill="#FB4C41"/>
<rect x="1.58588" y="4.75769" width="1.32159" height="1.32159" fill="#FB4C41"/>
<rect x="12.2026" y="21.8062" width="1.32159" height="1.32159" fill="#FB4C41"/>
<rect x="12.5551" y="20.9692" width="1.76211" height="1.32159" fill="#FB4C41"/>
<rect x="12.5551" y="19.6476" width="1.76211" height="1.32159" fill="#FB4C41"/>
<rect x="12.5551" y="18.326" width="1.76211" height="1.32159" fill="#FB4C41"/>
<rect x="12.5551" y="17.0044" width="1.76211" height="1.32159" fill="#FB4C41"/>
<rect x="11.5419" y="19.8679" width="1.76211" height="1.32159" fill="#FB4C41"/>
<rect x="11.5419" y="18.5903" width="1.76211" height="1.32159" fill="#FB4C41"/>
<rect x="10.8811" y="18.4141" width="1.76211" height="1.32159" fill="#FB4C41"/>
<rect x="13.4362" y="23.6564" width="1.27753" height="1.23348" fill="#FB4C41"/>
<rect x="11.2335" y="17.0044" width="1.76211" height="1.40969" fill="#FB4C41"/>
<rect x="9.82373" y="17.0044" width="1.76211" height="1.40969" fill="#FB4C41"/>
<rect x="16.6079" y="18.6784" width="1.32159" height="1.32159" fill="#FB4C41"/>
<rect x="16.6079" y="17.3568" width="1.32159" height="1.32159" fill="#FB4C41"/>
<rect x="17.9295" y="17.3568" width="1.32159" height="1.32159" fill="#FB4C41"/>
<rect x="15.2864" y="21.2335" width="1.32159" height="1.32159" fill="#FB4C41"/>
<rect x="16.6079" y="21.2335" width="1.32159" height="1.32159" fill="#FB4C41"/>
<rect x="17.9295" y="21.2335" width="1.32159" height="1.32159" fill="#FB4C41"/>
<rect x="16.9163" y="24.6696" width="1.32159" height="1.32159" fill="#FB4C41"/>
<rect x="17.9295" y="22.2908" width="1.32159" height="1.32159" fill="#FB4C41"/>
<rect x="18.0616" y="23.5682" width="1.32159" height="1.32159" fill="#FB4C41"/>
<rect x="17.9295" y="20" width="1.32159" height="1.32159" fill="#FB4C41"/>
<rect x="19.2511" y="21.2335" width="1.32159" height="1.32159" fill="#FB4C41"/>
<rect x="19.2511" y="20" width="1.32159" height="1.32159" fill="#FB4C41"/>
<rect x="19.2511" y="18.6784" width="1.32159" height="1.32159" fill="#FB4C41"/>
<rect x="19.8238" y="18.6784" width="1.32159" height="1.32159" fill="#FB4C41"/>
<rect x="17.9295" y="18.6784" width="1.32159" height="1.32159" fill="#FB4C41"/>
<rect x="19.2511" y="17.3568" width="1.32159" height="1.32159" fill="#FB4C41"/>
<rect x="20.3083" y="17.3568" width="1.32159" height="1.32159" fill="#FB4C41"/>
<rect x="20.881" y="16.0353" width="1.32159" height="1.32159" fill="#FB4C41"/>
<rect x="20.2202" y="15.3744" width="1.32159" height="1.32159" fill="#FB4C41"/>
<rect x="19.6476" y="16.2555" width="1.32159" height="1.32159" fill="#FB4C41"/>
<rect x="18.7666" y="16.0353" width="1.32159" height="1.32159" fill="#FB4C41"/>
<rect x="17.8855" y="16.0353" width="1.32159" height="1.32159" fill="#FB4C41"/>
<rect x="17.9295" y="14.7136" width="1.32159" height="1.32159" fill="#FB4C41"/>
<rect x="19.163" y="14.7577" width="1.32159" height="1.32159" fill="#FB4C41"/>
<rect x="20.3524" y="14.3612" width="1.32159" height="1.32159" fill="#FB4C41"/>
<rect x="21.0132" y="15.022" width="1.32159" height="1.32159" fill="#FB4C41"/>
<rect x="19.5594" y="15.6388" width="1.32159" height="1.32159" fill="#FB4C41"/>
<rect x="20.3083" y="13.2158" width="1.32159" height="1.32159" fill="#FB4C41"/>
<rect x="19.6035" y="14.4053" width="1.32159" height="1.32159" fill="#FB4C41"/>
<rect x="20.4406" y="14.2731" width="1.32159" height="1.32159" fill="#FB4C41"/>
<rect x="21.5418" y="14.3612" width="1.32159" height="1.32159" fill="#FB4C41"/>
<rect x="22.3789" y="12.0704" width="1.32159" height="1.32159" fill="#FB4C41"/>
<rect x="22.0264" y="10.6608" width="1.32159" height="1.32159" fill="#FB4C41"/>
<rect x="24.2731" y="10" width="1.32159" height="1.32159" fill="#FB4C41"/>
<rect x="24.185" y="8.81055" width="1.32159" height="1.32159" fill="#FB4C41"/>
<rect x="21.4538" y="7.53308" width="1.32159" height="1.32159" fill="#FB4C41"/>
<rect x="24.6696" y="7.1366" width="1.32159" height="1.36564" fill="#FB4C41"/>
<rect x="21.9383" y="5.85901" width="1.32159" height="1.36564" fill="#FB4C41"/>
<rect x="21.0572" y="8.98682" width="1.32159" height="1.36564" fill="#FB4C41"/>
<rect x="21.5859" y="13.1278" width="1.32159" height="1.32159" fill="#FB4C41"/>
<rect x="22.5991" y="13.304" width="1.4978" height="1.32159" fill="#FB4C41"/>
<rect x="20.9692" y="12.1586" width="1.4978" height="1.32159" fill="#FB4C41"/>
<rect x="20.6167" y="10.925" width="1.4978" height="1.32159" fill="#FB4C41"/>
<rect x="22.3789" y="10.3965" width="1.4978" height="1.32159" fill="#FB4C41"/>
<rect x="22.2908" y="9.2511" width="1.4978" height="1.32159" fill="#FB4C41"/>
<rect x="23.2599" y="7.22461" width="1.4978" height="1.36564" fill="#FB4C41"/>
<rect x="20.5287" y="5.94714" width="1.4978" height="1.36564" fill="#FB4C41"/>
<rect x="20.925" y="8.32593" width="1.4978" height="1.36564" fill="#FB4C41"/>
<rect x="21.4978" y="11.1895" width="1.4978" height="1.32159" fill="#FB4C41"/>
<rect x="20.925" y="10.0881" width="1.4978" height="1.32159" fill="#FB4C41"/>
<rect x="23.0837" y="9.51538" width="1.4978" height="1.32159" fill="#FB4C41"/>
<rect x="23.348" y="8.28198" width="1.4978" height="1.32159" fill="#FB4C41"/>
<rect x="20.6167" y="7.00439" width="1.4978" height="1.32159" fill="#FB4C41"/>
<rect x="23.4802" y="6.07935" width="1.4978" height="1.36564" fill="#FB4C41"/>
<rect x="21.0572" y="4.93396" width="1.4978" height="1.36564" fill="#FB4C41"/>
<rect x="22.1145" y="8.10571" width="1.4978" height="1.36564" fill="#FB4C41"/>
<rect x="19.3832" y="6.82825" width="1.4978" height="1.36564" fill="#FB4C41"/>
<rect x="23.3039" y="13.0837" width="1.32159" height="1.32159" fill="#FB4C41"/>
<rect x="23.9648" y="11.7621" width="1.32159" height="1.32159" fill="#FB4C41"/>
<rect x="23.7004" y="10.6608" width="1.32159" height="1.32159" fill="#FB4C41"/>
<rect x="25.3744" y="10" width="1.32159" height="1.32159" fill="#FB4C41"/>
<rect x="25.5947" y="8.23792" width="1.32159" height="1.32159" fill="#FB4C41"/>
<rect x="25.7709" y="4.84583" width="1.32159" height="1.32159" fill="#FB4C41"/>
<rect x="24.6255" y="3.83264" width="1.32159" height="1.32159" fill="#FB4C41"/>
<rect x="26.2996" y="1.98242" width="1.32159" height="1.32159" fill="#FB4C41"/>
<rect x="26.1234" y="3.6123" width="1.32159" height="1.32159" fill="#FB4C41"/>
<rect x="27.7974" y="1.76208" width="1.32159" height="1.32159" fill="#FB4C41"/>
<rect x="25.2864" y="3.21582" width="1.32159" height="1.32159" fill="#FB4C41"/>
<rect x="26.9603" y="1.3656" width="1.32159" height="1.32159" fill="#FB4C41"/>
<rect x="26.9163" y="2.95154" width="1.32159" height="1.32159" fill="#FB4C41"/>
<rect x="28.5903" y="1.10132" width="1.32159" height="1.32159" fill="#FB4C41"/>
<rect x="27.0043" y="4.27319" width="1.32159" height="1.32159" fill="#FB4C41"/>
<rect x="28.6784" y="2.42285" width="1.32159" height="1.32159" fill="#FB4C41"/>
<rect x="27.6652" y="3.52417" width="1.32159" height="1.32159" fill="#FB4C41"/>
<rect x="27.9295" y="2.29077" width="1.32159" height="1.32159" fill="#FB4C41"/>
<rect x="22.8634" y="6.96033" width="1.32159" height="1.32159" fill="#FB4C41"/>
<rect x="26.3436" y="6.87231" width="1.32159" height="1.40969" fill="#FB4C41"/>
<rect x="24.4493" y="5.72681" width="1.32159" height="1.40969" fill="#FB4C41"/>
<rect x="22.3789" y="5.55066" width="1.32159" height="1.40969" fill="#FB4C41"/>
<rect x="23.3039" y="11.7621" width="1.32159" height="1.32159" fill="#FB4C41"/>
<rect x="22.8194" y="11.0132" width="1.32159" height="1.32159" fill="#FB4C41"/>
<rect x="24.3724" y="10.5718" width="1.32159" height="1.32159" transform="rotate(-7.13086 24.3724 10.5718)" fill="#FB4C41"/>
<rect x="24.978" y="8.98682" width="1.32159" height="1.32159" fill="#FB4C41"/>
<rect x="22.2466" y="7.70923" width="1.32159" height="1.32159" fill="#FB4C41"/>
<rect x="25.7269" y="5.99121" width="1.32159" height="1.40969" fill="#FB4C41"/>
<rect x="22.7753" y="4.71362" width="1.32159" height="1.40969" fill="#FB4C41"/>
<rect x="22.3789" y="3.25989" width="1.32159" height="1.40969" fill="#FB4C41"/>
<rect x="24.0529" y="1.40967" width="1.32159" height="1.40969" fill="#FB4C41"/>
<rect x="21.6299" y="4.18506" width="1.32159" height="1.40969" fill="#FB4C41"/>
<rect x="23.3039" y="2.33484" width="1.32159" height="1.40969" fill="#FB4C41"/>
<rect x="24.4053" y="7.98486" width="1.32159" height="1.40969" transform="rotate(-0.488257 24.4053 7.98486)" fill="#FB4C41"/>
<rect x="21.674" y="6.70728" width="1.32159" height="1.40969" transform="rotate(-0.488257 21.674 6.70728)" fill="#FB4C41"/>
<rect x="19.5154" y="20.7048" width="1.32159" height="1.32159" fill="#FB4C41"/>
<rect x="20" y="19.3832" width="1.32159" height="1.32159" fill="#FB4C41"/>
<rect x="20.6608" y="18.0617" width="1.32159" height="1.32159" fill="#FB4C41"/>
<rect x="21.3216" y="16.8722" width="1.32159" height="1.32159" fill="#FB4C41"/>
<rect x="21.9823" y="15.5507" width="1.32159" height="1.32159" fill="#FB4C41"/>
<rect x="22.6432" y="14.4053" width="1.32159" height="1.32159" fill="#FB4C41"/>
<rect x="19.2511" y="20.5727" width="1.32159" height="1.32159" fill="#FB4C41"/>
<rect x="19.2511" y="21.1894" width="1.32159" height="1.32159" fill="#FB4C41"/>
<rect x="15.2864" y="17.3568" width="1.32159" height="1.32159" fill="#FB4C41"/>
<rect x="16.6079" y="16.0353" width="1.32159" height="1.32159" fill="#FB4C41"/>
<rect x="15.2864" y="16.0353" width="1.32159" height="1.32159" fill="#FB4C41"/>
<rect x="14.4934" y="13.4802" width="1.32159" height="1.32159" fill="#FB4C41"/>
<rect x="16.7401" y="14.4053" width="1.32159" height="1.32159" fill="#FB4C41"/>
<rect x="16.4318" y="12.3348" width="1.32159" height="1.32159" fill="#FB4C41"/>
<rect x="12.2467" y="13.1278" width="1.32159" height="1.32159" fill="#FB4C41"/>
<rect x="13.4362" y="11.0573" width="1.32159" height="1.32159" fill="#FB4C41"/>
<rect x="13.392" y="12.0704" width="1.32159" height="1.32159" fill="#FB4C41"/>
<rect x="9.20703" y="12.8634" width="1.32159" height="1.32159" fill="#FB4C41"/>
<rect x="10.3965" y="10.793" width="1.32159" height="1.32159" fill="#FB4C41"/>
<rect x="17.2687" y="10.3524" width="1.32159" height="1.32159" fill="#FB4C41"/>
<rect x="20" y="14.4493" width="1.32159" height="1.32159" fill="#FB4C41"/>
<rect x="17.4009" y="15.9031" width="1.32159" height="1.32159" fill="#FB4C41"/>
<rect x="18.1498" y="14.5815" width="1.32159" height="1.32159" fill="#FB4C41"/>
<rect x="17.7534" y="13.5682" width="1.32159" height="1.32159" fill="#FB4C41"/>
<rect x="17.9295" y="12.2467" width="1.32159" height="1.32159" fill="#FB4C41"/>
<rect x="17.8855" y="11.0573" width="1.32159" height="1.32159" fill="#FB4C41"/>
<rect x="16.652" y="11.8943" width="1.32159" height="1.32159" fill="#FB4C41"/>
<rect x="12.4669" y="12.6873" width="1.32159" height="1.32159" fill="#FB4C41"/>
<rect x="13.6564" y="10.6167" width="1.32159" height="1.32159" fill="#FB4C41"/>
<rect x="16.7401" y="9.60352" width="1.32159" height="1.32159" fill="#FB4C41"/>
<rect x="12.5551" y="10.3965" width="1.32159" height="1.32159" fill="#FB4C41"/>
<rect x="13.7445" y="8.32593" width="1.32159" height="1.32159" fill="#FB4C41"/>
<rect x="12.7313" y="7.22461" width="1.32159" height="1.32159" fill="#FB4C41"/>
<rect x="11.1895" y="7.04846" width="1.32159" height="1.32159" fill="#FB4C41"/>
<rect x="15.5067" y="8.54626" width="1.32159" height="1.32159" fill="#FB4C41"/>
<rect x="15.815" y="9.8678" width="1.32159" height="1.05727" fill="#FB4C41"/>
<rect x="15.5067" y="10.4406" width="1.32159" height="1.32159" fill="#FB4C41"/>
<rect x="11.3215" y="11.2335" width="1.32159" height="1.32159" fill="#FB4C41"/>
<rect x="12.511" y="9.16296" width="1.32159" height="1.32159" fill="#FB4C41"/>
<rect x="11.4978" y="8.06165" width="1.32159" height="1.32159" fill="#FB4C41"/>
<rect x="13.0397" y="5.99121" width="1.32159" height="1.32159" fill="#FB4C41"/>
<rect x="11.7181" y="4.14099" width="1.32159" height="1.32159" fill="#FB4C41"/>
<rect x="13.7445" y="6.34363" width="1.32159" height="1.32159" fill="#FB4C41"/>
<rect x="12.4229" y="4.49341" width="1.32159" height="1.32159" fill="#FB4C41"/>
<rect x="9.38324" y="5.02197" width="1.32159" height="1.32159" fill="#FB4C41"/>
<rect x="14.2731" y="9.3833" width="1.32159" height="1.32159" fill="#FB4C41"/>
<rect x="13.2599" y="8.28198" width="1.32159" height="1.32159" fill="#FB4C41"/>
<rect x="14.5815" y="10.5287" width="1.32159" height="1.05727" fill="#FB4C41"/>
<rect x="17.0044" y="8.72253" width="1.32159" height="1.32159" fill="#FB4C41"/>
<rect x="16.4318" y="10.6608" width="1.32159" height="1.32159" fill="#FB4C41"/>
<rect x="12.2467" y="11.4537" width="1.32159" height="1.32159" fill="#FB4C41"/>
<rect x="13.4362" y="9.3833" width="1.32159" height="1.32159" fill="#FB4C41"/>
<rect x="17.3568" y="11.5419" width="1.32159" height="1.32159" fill="#FB4C41"/>
<rect x="17.3127" y="10.3524" width="1.32159" height="1.32159" fill="#FB4C41"/>
<rect x="17.4009" y="8.06165" width="1.32159" height="1.32159" fill="#FB4C41"/>
<rect x="16.1674" y="8.89868" width="1.32159" height="1.32159" fill="#FB4C41"/>
<rect x="17.3127" y="11.0132" width="1.32159" height="1.32159" fill="#FB4C41"/>
<rect x="17.4009" y="8.72253" width="1.32159" height="1.32159" fill="#FB4C41"/>
<rect x="16.1674" y="9.55945" width="1.32159" height="1.32159" fill="#FB4C41"/>
<rect x="11.9824" y="10.3524" width="1.32159" height="1.32159" fill="#FB4C41"/>
<rect x="13.1718" y="8.28198" width="1.32159" height="1.32159" fill="#FB4C41"/>
<rect x="12.2026" y="7.92957" width="1.32159" height="1.32159" fill="#FB4C41"/>
<rect x="10.0881" y="4.88989" width="1.32159" height="1.32159" fill="#FB4C41"/>
<rect x="9.86786" y="6.12341" width="1.32159" height="1.32159" fill="#FB4C41"/>
<rect x="14.6696" y="8.59033" width="1.32159" height="1.32159" fill="#FB4C41"/>
<rect x="11.4097" y="5.28638" width="1.32159" height="1.32159" fill="#FB4C41"/>
<rect x="11.4097" y="3.96472" width="1.32159" height="1.32159" fill="#FB4C41"/>
<rect x="10.1762" y="3.96472" width="1.32159" height="1.32159" fill="#FB4C41"/>
<rect x="9.2511" y="3.70044" width="1.32159" height="1.32159" fill="#FB4C41"/>
<rect x="19.3832" y="5.41846" width="1.32159" height="1.32159" fill="#FB4C41"/>
<rect x="13.6564" y="7.48901" width="1.32159" height="1.32159" fill="#FB4C41"/>
<rect x="12.1146" y="6.74011" width="1.32159" height="1.32159" fill="#FB4C41"/>
<rect x="11.1013" y="5.94714" width="1.32159" height="1.32159" fill="#FB4C41"/>
<rect x="15.903" y="5.02197" width="1.32159" height="1.32159" fill="#FB4C41"/>
<rect x="14.5815" y="3.17175" width="1.32159" height="1.32159" fill="#FB4C41"/>
<rect x="18.2379" y="4.44934" width="1.32159" height="1.32159" fill="#FB4C41"/>
<rect x="16.9163" y="2.59912" width="1.32159" height="1.32159" fill="#FB4C41"/>
<rect x="15.4185" y="7.57715" width="1.32159" height="1.32159" fill="#FB4C41"/>
<rect x="13.8766" y="6.82825" width="1.32159" height="1.32159" fill="#FB4C41"/>
<rect x="12.5551" y="4.97791" width="1.32159" height="1.32159" fill="#FB4C41"/>
<rect x="14.8899" y="6.07935" width="1.32159" height="1.32159" fill="#FB4C41"/>
<rect x="13.5683" y="4.22913" width="1.32159" height="1.32159" fill="#FB4C41"/>
<rect x="15.2423" y="9.82373" width="1.32159" height="1.05727" fill="#FB4C41"/>
<rect x="18.6783" y="7.53308" width="1.32159" height="1.05727" fill="#FB4C41"/>
<rect x="17.2687" y="9.16296" width="1.32159" height="1.32159" fill="#FB4C41"/>
<rect x="17.3127" y="7.84143" width="1.32159" height="1.32159" fill="#FB4C41"/>
<rect x="15.7709" y="7.09253" width="1.32159" height="1.32159" fill="#FB4C41"/>
<rect x="17.3127" y="6.51978" width="1.32159" height="1.32159" fill="#FB4C41"/>
<rect x="15.9911" y="4.66956" width="1.32159" height="1.32159" fill="#FB4C41"/>
<rect x="15.7709" y="5.77087" width="1.32159" height="1.32159" fill="#FB4C41"/>
<rect x="14.4493" y="3.92065" width="1.32159" height="1.32159" fill="#FB4C41"/>
<rect x="14.9779" y="4.44934" width="1.32159" height="1.32159" fill="#FB4C41"/>
<rect x="13.6564" y="2.59912" width="1.32159" height="1.32159" fill="#FB4C41"/>
<rect x="13.9207" y="5.11011" width="1.32159" height="1.32159" fill="#FB4C41"/>
<rect x="12.5991" y="3.25989" width="1.32159" height="1.32159" fill="#FB4C41"/>
<rect x="13.9648" y="20.9692" width="1.32159" height="1.32159" fill="#FB4C41"/>
<rect x="15.2864" y="19.9119" width="1.32159" height="1.32159" fill="#FB4C41"/>
<rect x="15.3304" y="22.7753" width="1.32159" height="1.32159" fill="#FB4C41"/>
<rect x="15.2864" y="18.6784" width="1.32159" height="1.32159" fill="#FB4C41"/>
<rect x="13.9648" y="18.6784" width="1.32159" height="1.32159" fill="#FB4C41"/>
<rect x="13.9648" y="17.3568" width="1.32159" height="1.32159" fill="#FB4C41"/>
<rect x="13.9648" y="16.0353" width="1.32159" height="1.32159" fill="#FB4C41"/>
<rect x="13.1718" y="13.4802" width="1.32159" height="1.32159" fill="#FB4C41"/>
<rect x="15.1101" y="14.3171" width="1.93833" height="1.80617" fill="#FB4C41"/>
<rect x="15.1101" y="12.3348" width="1.32159" height="1.32159" fill="#FB4C41"/>
<rect x="10.9251" y="13.1278" width="1.32159" height="1.32159" fill="#FB4C41"/>
<rect x="12.1146" y="11.0573" width="1.32159" height="1.32159" fill="#FB4C41"/>
<rect x="13.8326" y="11.1895" width="1.32159" height="1.32159" fill="#FB4C41"/>
<rect x="9.64758" y="11.9824" width="1.32159" height="1.32159" fill="#FB4C41"/>
<rect x="10.837" y="9.91187" width="1.32159" height="1.32159" fill="#FB4C41"/>
<rect x="8.72247" y="6.87231" width="1.32159" height="1.32159" fill="#FB4C41"/>
<rect x="9.82373" y="8.81055" width="1.32159" height="1.32159" fill="#FB4C41"/>
<rect x="7.70923" y="5.77087" width="1.32159" height="1.32159" fill="#FB4C41"/>
<rect x="13.9648" y="14.7136" width="1.32159" height="1.32159" fill="#FB4C41"/>
<rect x="13.1718" y="12.1586" width="1.32159" height="1.32159" fill="#FB4C41"/>
<rect x="8.98676" y="13.1718" width="1.32159" height="1.32159" fill="#FB4C41"/>
<rect x="10.1762" y="10.8811" width="1.32159" height="1.32159" fill="#FB4C41"/>
<rect x="15.4185" y="13.0837" width="1.32159" height="1.32159" fill="#FB4C41"/>
<rect x="15.1101" y="11.0132" width="1.32159" height="1.32159" fill="#FB4C41"/>
<rect x="10.9251" y="11.8062" width="1.32159" height="1.32159" fill="#FB4C41"/>
<rect x="12.1146" y="9.73572" width="1.32159" height="1.32159" fill="#FB4C41"/>
<rect x="10" y="6.69604" width="1.32159" height="1.32159" fill="#FB4C41"/>
<rect x="11.1013" y="8.6344" width="1.32159" height="1.32159" fill="#FB4C41"/>
<rect x="8.98676" y="5.59473" width="1.32159" height="1.32159" fill="#FB4C41"/>
<rect x="12.5991" y="11.1013" width="1.32159" height="1.32159" fill="#FB4C41"/>
<rect x="8.41412" y="11.8943" width="1.32159" height="1.32159" fill="#FB4C41"/>
<rect x="9.60352" y="9.82373" width="1.32159" height="1.32159" fill="#FB4C41"/>
<rect x="7.48901" y="6.78418" width="1.32159" height="1.32159" fill="#FB4C41"/>
<rect x="6.74005" y="7.57715" width="1.32159" height="1.32159" fill="#FB4C41"/>
<rect x="7.66516" y="7.79736" width="1.32159" height="1.32159" fill="#FB4C41"/>
<rect x="8.63434" y="8.01758" width="1.32159" height="1.32159" fill="#FB4C41"/>
<rect x="7.62115" y="8.54626" width="1.32159" height="1.32159" fill="#FB4C41"/>
<rect x="8.59027" y="8.72253" width="1.32159" height="1.32159" fill="#FB4C41"/>
<rect x="6.47577" y="5.68286" width="1.32159" height="1.32159" fill="#FB4C41"/>
<rect x="15.815" y="15.2423" width="1.32159" height="1.32159" fill="#FB4C41"/>
<rect x="14.4934" y="12.1586" width="1.32159" height="1.32159" fill="#FB4C41"/>
<rect x="10.3083" y="13.1718" width="1.32159" height="1.32159" fill="#FB4C41"/>
<rect x="11.4978" y="10.8811" width="1.32159" height="1.32159" fill="#FB4C41"/>
<rect x="16.7401" y="13.0837" width="1.32159" height="1.32159" fill="#FB4C41"/>
<rect x="16.4318" y="11.0132" width="1.32159" height="1.32159" fill="#FB4C41"/>
<rect x="12.2467" y="11.8062" width="1.32159" height="1.32159" fill="#FB4C41"/>
<rect x="13.4362" y="9.73572" width="1.32159" height="1.32159" fill="#FB4C41"/>
<rect x="12.4229" y="8.6344" width="1.32159" height="1.32159" fill="#FB4C41"/>
<rect x="13.4362" y="10.3083" width="1.32159" height="1.32159" fill="#FB4C41"/>
<rect x="9.2511" y="11.1013" width="1.32159" height="1.32159" fill="#FB4C41"/>
<rect x="10.4405" y="9.03076" width="1.32159" height="1.32159" fill="#FB4C41"/>
<rect x="10.3083" y="7.66516" width="1.32159" height="1.32159" fill="#FB4C41"/>
<rect x="8.32599" y="5.99121" width="1.32159" height="1.32159" fill="#FB4C41"/>
<rect x="9.42737" y="7.92957" width="1.32159" height="1.32159" fill="#FB4C41"/>
<rect x="7.31274" y="4.88989" width="1.32159" height="1.32159" fill="#FB4C41"/>
<rect x="8.37" y="4.62549" width="1.32159" height="1.32159" fill="#FB4C41"/>
<rect x="7.70923" y="3.78857" width="1.32159" height="1.32159" fill="#FB4C41"/>
<rect x="8.94275" y="3.30396" width="1.32159" height="1.32159" fill="#FB4C41"/>
<rect x="9.42737" y="2.15857" width="1.32159" height="1.32159" fill="#FB4C41"/>
<rect x="10" y="1.27759" width="1.32159" height="1.32159" fill="#FB4C41"/>
<rect x="10.6608" y="2.1145" width="1.32159" height="1.32159" fill="#FB4C41"/>
<rect x="10.1762" y="2.95154" width="1.32159" height="1.32159" fill="#FB4C41"/>
<rect x="8.5022" y="2.55505" width="1.32159" height="1.32159" fill="#FB4C41"/>
<rect x="8.28198" y="1.54187" width="1.32159" height="1.32159" fill="#FB4C41"/>
<rect x="7.26874" y="1.05725" width="1.32159" height="1.32159" fill="#FB4C41"/>
<rect x="7.70923" width="1.32159" height="1.32159" fill="#FB4C41"/>
<rect x="8.41412" y="0.792969" width="1.32159" height="1.32159" fill="#FB4C41"/>
<rect x="8.94275" y="1.63" width="1.32159" height="1.32159" fill="#FB4C41"/>
<rect x="17.0044" y="14.8018" width="1.32159" height="1.32159" fill="#FB4C41"/>
<rect x="19.2511" y="18.6784" width="1.32159" height="1.32159" fill="#FB4C41"/>
<rect x="13.9648" y="19.6476" width="1.32159" height="1.32159" fill="#FB4C41"/>
<rect x="12.6431" y="26.2555" width="1.32159" height="1.32159" fill="#FB4C41"/>
<rect x="12.6431" y="27.5771" width="1.32159" height="1.32159" fill="#FB4C41"/>
<rect x="13.8766" y="27.5771" width="1.32159" height="1.32159" fill="#FB4C41"/>
<rect x="13.5242" y="17.0925" width="1.32159" height="1.32159" fill="#FB4C41"/>
<rect x="12.1146" y="21.1894" width="1.32159" height="1.32159" fill="#FB4C41"/>
<rect x="18.5022" y="9.51538" width="1.32159" height="1.32159" fill="#FB4C41"/>
<rect x="20" y="7.79736" width="1.32159" height="1.32159" fill="#FB4C41"/>
<rect x="18.2379" y="7.8855" width="1.32159" height="1.32159" fill="#FB4C41"/>
<rect x="17.6652" y="9.82373" width="1.32159" height="1.32159" fill="#FB4C41"/>
<rect x="18.9868" y="7.97351" width="1.32159" height="1.32159" fill="#FB4C41"/>
<rect x="18.5462" y="9.51538" width="1.32159" height="1.32159" fill="#FB4C41"/>
<rect x="18.8987" y="6.34363" width="1.32159" height="1.32159" fill="#FB4C41"/>
<rect x="18.5462" y="10.1763" width="1.32159" height="1.32159" fill="#FB4C41"/>
<rect x="18.8987" y="7.00439" width="1.32159" height="1.32159" fill="#FB4C41"/>
<rect x="19.6476" y="9.77966" width="1.32159" height="1.32159" fill="#FB4C41"/>
<rect x="18.5022" y="8.32593" width="1.32159" height="1.32159" fill="#FB4C41"/>
<rect x="16.4758" y="7.79736" width="1.32159" height="1.32159" fill="#FB4C41"/>
<rect x="14.8458" y="7.31274" width="1.32159" height="1.32159" fill="#FB4C41"/>
<rect x="18.1498" y="5.19824" width="1.32159" height="1.32159" fill="#FB4C41"/>
<rect x="16.8282" y="3.34802" width="1.32159" height="1.32159" fill="#FB4C41"/>
<rect x="20.3083" y="12.3789" width="1.32159" height="1.32159" fill="#FB4C41"/>
<rect x="20" y="6.60791" width="1.32159" height="1.32159" fill="#FB4C41"/>
<rect x="19.7357" y="9.64758" width="1.32159" height="1.32159" fill="#FB4C41"/>
<rect x="19.6916" y="8.45813" width="1.32159" height="1.32159" fill="#FB4C41"/>
<rect x="18.5462" y="7.00439" width="1.32159" height="1.32159" fill="#FB4C41"/>
<rect x="20.0441" y="5.28638" width="1.32159" height="1.32159" fill="#FB4C41"/>
<rect x="19.7357" y="8.32593" width="1.32159" height="1.32159" fill="#FB4C41"/>
<rect x="19.6916" y="7.1366" width="1.32159" height="1.32159" fill="#FB4C41"/>
<rect x="18.5462" y="5.68286" width="1.32159" height="1.32159" fill="#FB4C41"/>
<rect x="17.2246" y="3.83264" width="1.32159" height="1.32159" fill="#FB4C41"/>
<rect x="16.652" y="6.69604" width="1.32159" height="1.32159" fill="#FB4C41"/>
<rect x="15.3304" y="4.84583" width="1.32159" height="1.32159" fill="#FB4C41"/>
<rect x="17.0925" y="5.50659" width="1.32159" height="1.32159" fill="#FB4C41"/>
<rect x="15.7709" y="3.65637" width="1.32159" height="1.32159" fill="#FB4C41"/>
<rect x="14.5815" y="5.46252" width="1.32159" height="1.32159" fill="#FB4C41"/>
<rect x="13.2599" y="3.6123" width="1.32159" height="1.32159" fill="#FB4C41"/>
<rect x="20.0441" y="3.96472" width="1.32159" height="1.32159" fill="#FB4C41"/>
<rect x="19.0749" y="4.18506" width="1.32159" height="1.32159" fill="#FB4C41"/>
<rect x="17.2246" y="4.27319" width="1.32159" height="1.32159" fill="#FB4C41"/>
<rect x="15.903" y="2.42285" width="1.32159" height="1.32159" fill="#FB4C41"/>
<rect x="19.0749" y="13.4802" width="1.32159" height="1.32159" fill="#FB4C41"/>
<rect x="19.6916" y="12.1586" width="1.32159" height="1.32159" fill="#FB4C41"/>
<rect x="19.6476" y="10.9691" width="1.32159" height="1.32159" fill="#FB4C41"/>
<rect x="18.6783" y="12.3348" width="1.32159" height="1.32159" fill="#FB4C41"/>
<rect x="18.6343" y="11.1454" width="1.32159" height="1.32159" fill="#FB4C41"/>
<rect x="18.5903" y="10.7048" width="1.32159" height="1.32159" fill="#FB4C41"/>
<rect x="18.5903" y="11.3656" width="1.32159" height="1.32159" fill="#FB4C41"/>
<rect x="19.6916" y="10.9691" width="1.32159" height="1.32159" fill="#FB4C41"/>
<rect x="15.7709" y="14.141" width="1.32159" height="1.32159" fill="#FB4C41"/>
<rect x="7.9295" y="13.1718" width="1.32159" height="1.32159" fill="#FB4C41"/>
<rect x="7.40088" y="11.5419" width="1.32159" height="1.32159" fill="#FB4C41"/>
<rect x="5.81494" y="10.2202" width="1.32159" height="1.32159" fill="#FB4C41"/>
<rect x="4.0528" y="8.81055" width="1.32159" height="1.32159" fill="#FB4C41"/>
<rect x="1.93835" y="5.77087" width="1.32159" height="1.32159" fill="#FB4C41"/>
<rect x="2.11456" y="6.43176" width="1.32159" height="1.32159" fill="#FB4C41"/>
<rect x="2.8634" y="6.91626" width="1.32159" height="1.32159" fill="#FB4C41"/>
<rect x="7.40088" y="9.33923" width="1.32159" height="1.32159" fill="#FB4C41"/>
<rect x="5.28632" y="6.29956" width="1.32159" height="1.32159" fill="#FB4C41"/>
<rect x="5.63879" y="7.92957" width="1.32159" height="1.32159" fill="#FB4C41"/>
<rect x="3.52423" y="4.88989" width="1.32159" height="1.32159" fill="#FB4C41"/>
<rect x="8.01764" y="10.5726" width="1.32159" height="1.32159" fill="#FB4C41"/>
<rect x="6.25549" y="9.16296" width="1.32159" height="1.32159" fill="#FB4C41"/>
<rect x="4.14093" y="6.12341" width="1.32159" height="1.32159" fill="#FB4C41"/>
<rect x="8.41412" y="9.91187" width="1.32159" height="1.32159" fill="#FB4C41"/>
<rect x="6.38763" y="6.91626" width="1.32159" height="1.32159" fill="#FB4C41"/>
<rect x="6.25549" y="11.7621" width="1.32159" height="1.32159" fill="#FB4C41"/>
<rect x="4.66956" y="10.4406" width="1.32159" height="1.32159" fill="#FB4C41"/>
<rect x="2.90747" y="9.03076" width="1.32159" height="1.32159" fill="#FB4C41"/>
<rect x="0.792969" y="5.99121" width="1.32159" height="1.32159" fill="#FB4C41"/>
<rect x="1.3656" y="6.51978" width="1.32159" height="1.32159" fill="#FB4C41"/>
<rect x="6.25549" y="9.55945" width="1.32159" height="1.32159" fill="#FB4C41"/>
<rect x="4.14093" y="6.51978" width="1.32159" height="1.32159" fill="#FB4C41"/>
<rect x="4.49341" y="8.14978" width="1.32159" height="1.32159" fill="#FB4C41"/>
<rect x="2.37885" y="5.11011" width="1.32159" height="1.32159" fill="#FB4C41"/>
<rect x="6.74005" y="10.6167" width="1.32159" height="1.32159" fill="#FB4C41"/>
<rect x="4.97797" y="9.20703" width="1.32159" height="1.32159" fill="#FB4C41"/>
<rect x="2.8634" y="6.16736" width="1.32159" height="1.32159" fill="#FB4C41"/>
<rect x="5.24231" y="9.1189" width="1.32159" height="1.32159" fill="#FB4C41"/>
<rect x="3.12775" y="6.07935" width="1.32159" height="1.32159" fill="#FB4C41"/>
<rect x="1.89435" y="7.40088" width="1.32159" height="1.32159" fill="#FB4C41"/>
<rect x="3.4361" y="7.70923" width="1.32159" height="1.32159" fill="#FB4C41"/>
<rect x="1.23346" y="4.75769" width="1.32159" height="1.32159" fill="#FB4C41"/>
<rect x="0.748901" y="4.58154" width="1.32159" height="1.32159" fill="#FB4C41"/>
<rect x="6.82819" y="8.23792" width="1.32159" height="1.32159" fill="#FB4C41"/>
<rect x="4.71368" y="5.19824" width="1.32159" height="1.32159" fill="#FB4C41"/>
<rect x="5.06604" y="6.87231" width="1.32159" height="1.32159" fill="#FB4C41"/>
<rect x="2.95154" y="3.78857" width="1.32159" height="1.32159" fill="#FB4C41"/>
<rect x="25.8149" y="7.00439" width="1.32159" height="1.40969" fill="#FB4C41"/>
</svg>
